<svg xmlns="http://www.w3.org/2000/svg" version="1.1" xmlns:xlink="http://www.w3.org/1999/xlink" xmlns:svgjs="http://svgjs.dev/svgjs" width="1500" height="1500" viewBox="0 0 1500 1500"><rect width="1500" height="1500" fill="#000000"></rect><g transform="matrix(0.6666666666666666,0,0,0.6666666666666666,248.45923672155897,545.8766353700662)"><svg viewBox="0 0 240 96" data-background-color="#ffffff" preserveAspectRatio="xMidYMid meet" height="600" width="1500" xmlns="http://www.w3.org/2000/svg" xmlns:xlink="http://www.w3.org/1999/xlink"><g id="tight-bounds" transform="matrix(1,0,0,1,0.3697831868258561,0.9896075111841185)"><svg viewBox="0 0 238.76128820079765 94.5199304031823" height="94.5199304031823" width="238.76128820079765"><g><svg viewBox="0 0 238.76128820079765 94.5199304031823" height="94.5199304031823" width="238.76128820079765"><g><svg viewBox="0 0 238.76128820079765 94.5199304031823" height="94.5199304031823" width="238.76128820079765"><g id="textblocktransform"><svg viewBox="0 0 238.76128820079765 94.5199304031823" height="94.5199304031823" width="238.76128820079765" id="textblock"><g><svg viewBox="0 0 238.76128820079765 62.66227010995371" height="62.66227010995371" width="238.76128820079765"><g><svg><g></g><g></g></svg></g><g><svg><g><svg></svg></g><g></g></svg></g><g id="text-0"><svg viewBox="0 0 238.76128820079765 62.66227010995371" height="62.66227010995371" width="238.76128820079765"><g transform="matrix(1,0,0,1,0,0)"><svg width="86.30837023204762" viewBox="1.03 -37.94 80.42349853984 58.4" height="62.66227010995371" data-palette-color="#000000"><path d="M8.79-30.42L8.79-30.42Q10.6-30.42 11.94-29.37 13.28-28.32 14.28-26.56 15.28-24.8 15.97-22.51 16.65-20.21 17.09-17.7 17.53-15.19 17.77-12.62 18.02-10.06 18.12-7.81 18.21-5.57 18.24-3.76 18.26-1.95 18.26-0.93L18.26-0.93 17.09-0.93 15.23-11.23Q14.99-11.47 14.14-11.52 13.28-11.57 12.13-11.47 10.99-11.38 9.64-11.21 8.3-11.04 7.1-10.96 5.91-10.89 4.93-10.91 3.96-10.94 3.52-11.23L3.52-11.23 3.52-0.93 1.03-0.93Q1.03-1.07 1.05-1.49 1.07-1.9 1.07-2.34 1.07-2.78 1.12-3.17 1.17-3.56 1.17-3.71L1.17-3.71Q1.46-6.54 1.64-9.45 1.81-12.35 2.05-15.09 2.29-17.82 2.71-20.31 3.13-22.8 3.91-24.83 4.69-26.86 5.86-28.3 7.03-29.74 8.79-30.42ZM9.57-28.17L9.57-28.17Q8.3-28.17 7.45-27.27 6.59-26.37 6.05-24.93 5.52-23.49 5.22-21.73 4.93-19.97 4.83-18.29 4.74-16.6 4.71-15.16 4.69-13.72 4.69-12.94L4.69-12.94Q7.08-12.94 9.57-13.31 12.06-13.67 14.26-14.06L14.26-14.06Q14.31-14.26 14.33-14.7 14.36-15.14 14.38-15.67 14.4-16.21 14.43-16.7 14.45-17.19 14.45-17.33L14.45-17.33Q14.45-18.95 14.28-20.41 14.11-21.88 13.6-23.27 13.09-24.66 12.13-25.88 11.18-27.1 9.57-28.17ZM21.58-37.94L21.58-37.94Q22.26-37.84 22.78-37.57 23.29-37.3 23.58-36.62L23.58-36.62Q23.58-35.69 23.65-34.06 23.73-32.42 23.8-30.27 23.87-28.13 23.97-25.63 24.07-23.14 24.17-20.61 24.27-18.07 24.34-15.58 24.41-13.09 24.48-10.94 24.56-8.79 24.61-7.13 24.66-5.47 24.7-4.59L24.7-4.59Q24.7-4.49 24.68-4.25 24.66-4 24.63-3.66 24.61-3.32 24.58-3 24.56-2.69 24.56-2.54L24.56-2.54Q24.51-2.25 24.51-1.83 24.51-1.42 24.41-1.03 24.31-0.63 24.09-0.32 23.87 0 23.39 0.05L23.39 0.05 22.56-0.98Q22.51-1.03 22.43-2.81 22.36-4.59 22.24-7.45 22.12-10.3 22.02-13.89 21.92-17.48 21.8-21.14 21.68-24.8 21.58-28.17 21.48-31.54 21.43-33.98L21.43-33.98Q21.43-34.18 21.46-34.77 21.48-35.35 21.51-35.96 21.53-36.57 21.56-37.13 21.58-37.7 21.58-37.94ZM29.1-12.65L29.1-12.65Q28.9-12.5 28.56-12.55 28.22-12.6 27.92-12.72 27.63-12.84 27.41-13.06 27.19-13.28 27.19-13.57L27.19-13.57Q27.19-15.23 28.22-16.63 29.24-18.02 30.76-19.02 32.27-20.02 33.98-20.58 35.69-21.14 37.1-21.14L37.1-21.14Q39.35-21.14 41.18-20.39 43.01-19.63 44.31-18.31 45.6-16.99 46.31-15.23 47.02-13.48 47.02-11.47L47.02-11.47Q47.07-8.94 45.87-6.84 44.67-4.74 42.74-3.25 40.82-1.76 38.45-1 36.08-0.24 33.78-0.44L33.78-0.44Q33.88 1.32 33.74 3.59 33.59 5.86 33.34 8.54 33.1 11.23 32.73 14.23 32.37 17.24 31.98 20.41L31.98 20.41Q31.98 20.46 31.68 20.46 31.39 20.46 31.07 20.39 30.76 20.31 30.44 20.24 30.12 20.17 30.07 20.21L30.07 20.21Q30.41 16.16 30.61 12.01 30.81 7.86 30.76 3.69 30.71-0.49 30.32-4.59 29.93-8.69 29.1-12.65ZM36.52-18.41L36.52-18.41Q35.59-18.36 34.52-18.14 33.44-17.92 32.61-17.48 31.78-17.04 31.29-16.31 30.81-15.58 30.95-14.5L30.95-14.5Q31.05-14.01 31.22-13.09 31.39-12.16 31.61-10.99 31.83-9.81 32.05-8.54 32.27-7.28 32.49-6.1 32.71-4.93 32.88-3.98 33.05-3.03 33.15-2.54L33.15-2.54Q33.74-2.64 34.81-2.73 35.88-2.83 37.1-3.13 38.33-3.42 39.62-3.93 40.91-4.44 42.04-5.37 43.16-6.3 44.01-7.69 44.87-9.08 45.16-11.13L45.16-11.13Q45.16-13.04 44.48-14.4 43.79-15.77 42.62-16.67 41.45-17.58 39.86-17.99 38.28-18.41 36.52-18.41ZM49.99-33.74L51.6-33.5 52.87-17.48Q53.22-17.77 53.75-18.36 54.29-18.95 55.02-19.46 55.75-19.97 56.63-20.34 57.51-20.7 58.54-20.65L58.54-20.65Q60.54-20.46 61.74-19.04 62.93-17.63 63.54-15.58 64.15-13.53 64.35-11.11 64.54-8.69 64.47-6.49 64.4-4.3 64.23-2.59 64.06-0.88 63.96-0.24L63.96-0.24 62.2-0.49Q62.2-0.93 62.22-1.88 62.25-2.83 62.3-4.13 62.35-5.42 62.35-6.84 62.35-8.25 62.37-9.5 62.39-10.74 62.37-11.72 62.35-12.7 62.3-13.09L62.3-13.09Q62.35-14.45 61.76-15.72 61.17-16.99 60.2-17.65 59.22-18.31 57.85-18.09 56.49-17.87 54.92-16.16L54.92-16.16Q53.56-14.11 52.92-12.13 52.29-10.16 52.09-8.23 51.9-6.3 51.95-4.27 51.99-2.25 51.95 0L51.95 0 50.04-0.29Q50.19-0.83 50.26-2.27 50.33-3.71 50.38-5.74 50.43-7.76 50.46-10.25 50.48-12.74 50.46-15.41 50.43-18.07 50.38-20.75 50.33-23.44 50.26-25.88 50.19-28.32 50.11-30.37 50.04-32.42 49.99-33.74L49.99-33.74ZM66.45-4.2L66.45-4.2Q66.45-6.98 67.98-8.25 69.52-9.52 72.01-9.52L72.01-9.52Q72.99-9.52 73.84-9.47 74.7-9.42 75.48-9.23 76.26-9.03 77.02-8.64 77.77-8.25 78.6-7.52L78.6-7.52Q78.6-7.67 78.63-8.13 78.65-8.59 78.65-9.13 78.65-9.67 78.65-10.13 78.65-10.6 78.65-10.79L78.65-10.79Q78.6-11.67 78.6-13.06 78.6-14.45 78.38-15.92 78.16-17.38 77.5-18.7 76.85-20.02 75.38-20.7L75.38-20.7Q74.36-20.7 73.48-20.36 72.6-20.02 71.72-19.63 70.84-19.24 69.96-18.92 69.08-18.6 68.06-18.6L68.06-18.6Q68.06-19.82 68.81-20.63 69.57-21.44 70.64-21.88 71.72-22.31 72.89-22.46 74.06-22.61 74.94-22.61L74.94-22.61Q75.82-22.46 76.58-22.27 77.33-22.07 77.99-21.48 78.65-20.9 79.21-19.7 79.78-18.51 80.19-16.36 80.61-14.21 80.92-10.91 81.24-7.62 81.44-2.83L81.44-2.83Q81.53-2.2 81.02-1.73 80.51-1.27 79.63-0.95 78.75-0.63 77.65-0.42 76.55-0.2 75.43-0.1 74.31 0 73.28 0.05 72.26 0.1 71.57 0.1L71.57 0.1Q70.69 0.1 69.79-0.2 68.89-0.49 68.13-1.05 67.37-1.61 66.91-2.42 66.45-3.22 66.45-4.2ZM72.79-7.62L72.79-7.62Q70.35-6.93 69.37-5.98 68.4-5.03 68.52-4.15 68.64-3.27 69.67-2.56 70.69-1.86 72.16-1.64 73.62-1.42 75.33-1.88 77.04-2.34 78.6-3.71L78.6-3.71Q78.02-5.13 77.43-5.88 76.85-6.64 76.16-7.03 75.48-7.42 74.65-7.52 73.82-7.62 72.79-7.62Z" opacity="1" transform="matrix(1,0,0,1,0,0)" fill="#ffffff" class="wordmark-text-0" data-fill-palette-color="primary"></path></svg></g><g><svg xmlns:x="http://ns.adobe.com/Extensibility/1.0/" xmlns:i="http://ns.adobe.com/AdobeIllustrator/10.0/" xmlns:graph="http://ns.adobe.com/Graphs/1.0/" xmlns="http://www.w3.org/2000/svg" xmlns:xlink="http://www.w3.org/1999/xlink" version="1.1" x="108.61657335704763" y="0" viewBox="5 19 54 26" enable-background="new 0 0 64 64" xml:space="preserve" height="62.66227010995371" width="130.14471484375002" class="icon-dxe-0" data-fill-palette-color="accent" id="dxe-0"><g fill="#0191da" data-fill-palette-color="accent"><path d="M58 27H55V20A1 1 0 0 0 54 19H50A1 1 0 0 0 49 20V29H15V20A1 1 0 0 0 14 19H10A1 1 0 0 0 9 20V27H6A1 1 0 0 0 5 28V36A1 1 0 0 0 6 37H9V44A1 1 0 0 0 10 45H14A1 1 0 0 0 15 44V35H49V44A1 1 0 0 0 50 45H54A1 1 0 0 0 55 44V37H58A1 1 0 0 0 59 36V28A1 1 0 0 0 58 27M7 35V29H9V35zM13 43H11V21H13zM15 33V31H49V33zM53 43H51V21H53zM57 35H55V29H57z" fill="#ffffff" data-fill-palette-color="accent"></path></g></svg><g></g></g></svg></g></svg></g><g transform="matrix(1,0,0,1,45.60340604635235,77.45532818843114)"><svg viewBox="0 0 147.55447610809296 17.064602214751154" height="17.064602214751154" width="147.55447610809296"><g transform="matrix(1,0,0,1,0,0)"><svg width="147.55447610809296" viewBox="2.6 -33.8 366.60999999999996 42.4" height="17.064602214751154" data-palette-color="#000000"><path d="M13.6 0.6L13.6 0.6Q9.98 0.6 7.53-0.86 5.08-2.33 3.84-5.13 2.6-7.93 2.6-11.9L2.6-11.9 2.6-19.45Q2.6-25.75 5.84-29.14 9.08-32.52 15.35-32.52L15.35-32.52Q17.6-32.52 19.44-32.16 21.28-31.8 22.7-31.21 24.13-30.63 25.15-29.98L25.15-29.98 25.53-26.23Q23.8-27.33 21.46-28.15 19.13-28.98 16.05-28.98L16.05-28.98Q11.4-28.98 9.11-26.5 6.83-24.03 6.83-19.38L6.83-19.38 6.83-11.93Q6.83-7.63 8.84-5.29 10.85-2.95 14.88-2.95L14.88-2.95Q16.93-2.95 18.39-3.65 19.85-4.35 20.79-5.5 21.73-6.65 22.15-8.03L22.15-8.03 22.15-15.9 22.83-14.43 15.3-14.43 15.3-17.88 26.2-17.88 26.2-5.25 22.13-5.28Q21.73-3.73 20.75-2.38 19.78-1.03 18.03-0.21 16.28 0.6 13.6 0.6ZM26.2 0L22.15 0 22.33-6.6 26.2-6.6 26.2 0ZM43 0.55L43 0.55Q37.42 0.55 34.6-2.18 31.77-4.9 31.77-9.98L31.77-9.98 31.77-14.33Q31.77-19.48 34.4-22.26 37.02-25.05 42.07-25.05L42.07-25.05Q45.47-25.05 47.75-23.79 50.02-22.53 51.17-20.2 52.32-17.88 52.32-14.65L52.32-14.65 52.32-13.75Q52.32-12.95 52.26-12.15 52.2-11.35 52.1-10.58L52.1-10.58 48.37-10.58Q48.42-11.78 48.44-12.85 48.45-13.93 48.45-14.83L48.45-14.83Q48.45-17.05 47.73-18.59 47.02-20.13 45.61-20.94 44.2-21.75 42.07-21.75L42.07-21.75Q38.92-21.75 37.35-19.93 35.77-18.1 35.77-14.7L35.77-14.7 35.77-12.38 35.8-11.88 35.8-9.55Q35.8-8.03 36.25-6.8 36.7-5.58 37.66-4.69 38.62-3.8 40.11-3.34 41.6-2.88 43.65-2.88L43.65-2.88Q46.02-2.88 48.07-3.5 50.12-4.13 51.92-5.2L51.92-5.2 51.55-1.7Q49.92-0.68 47.77-0.06 45.62 0.55 43 0.55ZM51.25-13.63L51.25-10.58 33.9-10.58 33.9-13.63 51.25-13.63ZM66.64 0.5L66.64 0.5Q63.82 0.5 62.09-0.35 60.37-1.2 59.59-2.93 58.82-4.65 58.82-7.23L58.82-7.23 58.82-22.63 62.82-22.63 62.82-7.7Q62.82-5.3 63.92-4.16 65.02-3.03 67.62-3.03L67.62-3.03Q69.09-3.03 70.46-3.35 71.82-3.68 73.02-4.28L73.02-4.28 72.64-0.8Q71.47-0.2 69.89 0.15 68.32 0.5 66.64 0.5ZM72.77-24.05L72.39-20.8 54.82-20.8 54.82-24.05 72.77-24.05ZM62.89-31.03L62.72-23.65 58.84-23.65 58.82-30.5 62.89-31.03ZM97.69-33.8L97.69-33.8Q99.57-33.8 101.05-33.46 102.54-33.13 103.79-32.63L103.79-32.63 104.19-29.45Q102.97-29.9 101.73-30.16 100.49-30.43 98.94-30.43L98.94-30.43Q97.07-30.43 95.93-29.94 94.79-29.45 94.3-28.56 93.82-27.68 93.82-26.43L93.82-26.43 93.82-26.3Q93.82-25.43 94.04-24.64 94.27-23.85 94.54-23.2L94.54-23.2 91.82-23.1 91.82-23.6Q91.04-24.2 90.45-25.28 89.87-26.35 89.87-27.78L89.87-27.78 89.87-27.9Q89.87-30.58 91.77-32.19 93.67-33.8 97.69-33.8ZM94.72-22.23L94.72 0 90.69 0 90.69-22.23 94.72-22.23ZM104.09-23.48L103.72-20.25 86.67-20.25 86.67-23.48 92.24-23.45 93.89-23.48 104.09-23.48ZM112.34-24.4L112.34 0 108.29 0 108.29-24.4 112.34-24.4ZM110.31-28.4L110.31-28.4Q109.06-28.4 108.45-29.06 107.84-29.73 107.84-30.88L107.84-30.88 107.84-31Q107.84-32.18 108.45-32.83 109.06-33.48 110.31-33.48L110.31-33.48Q111.56-33.48 112.19-32.83 112.81-32.18 112.81-31L112.81-31 112.81-30.88Q112.81-29.7 112.19-29.05 111.56-28.4 110.31-28.4ZM127.91 0.5L127.91 0.5Q125.09 0.5 123.36-0.35 121.64-1.2 120.86-2.93 120.09-4.65 120.09-7.23L120.09-7.23 120.09-22.63 124.09-22.63 124.09-7.7Q124.09-5.3 125.19-4.16 126.29-3.03 128.89-3.03L128.89-3.03Q130.36-3.03 131.72-3.35 133.09-3.68 134.29-4.28L134.29-4.28 133.91-0.8Q132.74-0.2 131.16 0.15 129.59 0.5 127.91 0.5ZM134.04-24.05L133.66-20.8 116.09-20.8 116.09-24.05 134.04-24.05ZM124.16-31.03L123.99-23.65 120.11-23.65 120.09-30.5 124.16-31.03ZM165.21-17.35L161.08 0 154.86 0 148.86-24.4 153.03-24.4 157.83-2.95 158.31-2.95 163.31-23.75 169.03-23.75 174.03-2.95 174.48-2.95 179.33-24.4 183.48-24.4 177.48 0 171.28 0 167.16-17.35 166.36-20.83 165.98-20.83 165.21-17.35ZM192.25-24.4L192.25 0 188.2 0 188.2-24.4 192.25-24.4ZM190.23-28.4L190.23-28.4Q188.98-28.4 188.37-29.06 187.75-29.73 187.75-30.88L187.75-30.88 187.75-31Q187.75-32.18 188.37-32.83 188.98-33.48 190.23-33.48L190.23-33.48Q191.48-33.48 192.1-32.83 192.73-32.18 192.73-31L192.73-31 192.73-30.88Q192.73-29.7 192.1-29.05 191.48-28.4 190.23-28.4ZM207.83 0.5L207.83 0.5Q205 0.5 203.28-0.35 201.55-1.2 200.78-2.93 200-4.65 200-7.23L200-7.23 200-22.63 204-22.63 204-7.7Q204-5.3 205.1-4.16 206.2-3.03 208.8-3.03L208.8-3.03Q210.28-3.03 211.64-3.35 213-3.68 214.2-4.28L214.2-4.28 213.83-0.8Q212.65-0.2 211.08 0.15 209.5 0.5 207.83 0.5ZM213.95-24.05L213.58-20.8 196-20.8 196-24.05 213.95-24.05ZM204.08-31.03L203.9-23.65 200.03-23.65 200-30.5 204.08-31.03ZM239.1-15.63L239.1 0 235.05 0 235.05-15.18Q235.05-17.15 234.51-18.57 233.97-20 232.76-20.79 231.55-21.58 229.45-21.58L229.45-21.58Q227.52-21.58 226.12-20.85 224.72-20.13 223.86-18.89 223-17.65 222.65-16.07L222.65-16.07 221.75-18.95 222.8-18.95Q223.17-20.6 224.17-21.96 225.17-23.33 226.86-24.14 228.55-24.95 230.97-24.95L230.97-24.95Q233.87-24.95 235.66-23.85 237.45-22.75 238.27-20.69 239.1-18.63 239.1-15.63L239.1-15.63ZM222.77-17.85L222.77 0 218.72 0 218.72-33.13 222.75-33.13 222.75-25.18 222.62-18.18 222.77-17.85ZM268.22-29.15L259.44 0 255.24 0 265.24-31.95 271.79-31.95 281.82 0 277.62 0 268.84-29.15 268.22-29.15ZM275.79-12.88L275.79-9.43 261.24-9.43 261.24-12.88 275.79-12.88ZM290.49-33.13L290.49 0 286.47 0 286.47-33.13 290.49-33.13ZM309.24 0.53L309.24 0.53Q306.99 0.53 305.34-0.23 303.69-0.98 302.66-2.38 301.64-3.78 301.29-5.63L301.29-5.63 299.96-5.63 301.14-9.43Q301.24-7.23 302.13-5.76 303.01-4.3 304.54-3.58 306.06-2.85 307.99-2.85L307.99-2.85Q311.06-2.85 312.7-4.65 314.34-6.45 314.34-9.93L314.34-9.93 314.34-14.6Q314.34-18.05 312.71-19.85 311.09-21.65 307.99-21.65L307.99-21.65Q306.14-21.65 304.71-20.93 303.29-20.2 302.35-18.95 301.41-17.7 301.06-16.1L301.06-16.1 300.06-18.93 301.24-18.93Q301.64-20.6 302.6-21.96 303.56-23.33 305.25-24.14 306.94-24.95 309.41-24.95L309.41-24.95Q313.81-24.95 316.11-22.21 318.41-19.48 318.41-14.28L318.41-14.28 318.41-10.23Q318.41-4.98 316.1-2.23 313.79 0.53 309.24 0.53ZM301.24 0.68L301.24 8.6 297.21 8.6 297.21-24.4 301.26-24.4 301.09-18.53 301.14-17.28 301.14-7 301.11-6.18 301.24 0.68ZM344.44-15.63L344.44 0 340.39 0 340.39-15.18Q340.39-17.15 339.85-18.57 339.31-20 338.1-20.79 336.89-21.58 334.79-21.58L334.79-21.58Q332.86-21.58 331.46-20.85 330.06-20.13 329.2-18.89 328.34-17.65 327.99-16.07L327.99-16.07 327.09-18.95 328.14-18.95Q328.51-20.6 329.51-21.96 330.51-23.33 332.2-24.14 333.89-24.95 336.31-24.95L336.31-24.95Q339.21-24.95 341-23.85 342.79-22.75 343.61-20.69 344.44-18.63 344.44-15.63L344.44-15.63ZM328.11-17.85L328.11 0 324.06 0 324.06-33.13 328.09-33.13 328.09-25.18 327.96-18.18 328.11-17.85ZM369.21-15.8L369.21 0 365.18 0 365.36-5.93 365.21-6.55 365.21-14.33 365.23-15.75Q365.23-18.73 363.72-20.15 362.21-21.58 358.93-21.58L358.93-21.58Q356.31-21.58 354.12-20.83 351.93-20.08 350.23-19.07L350.23-19.07 350.61-22.53Q351.56-23.1 352.87-23.66 354.18-24.23 355.87-24.6 357.56-24.98 359.58-24.98L359.58-24.98Q362.21-24.98 364.05-24.34 365.88-23.7 367.02-22.5 368.16-21.3 368.68-19.6 369.21-17.9 369.21-15.8L369.21-15.8ZM356.78 0.53L356.78 0.53Q353.16 0.53 351.22-1.24 349.28-3 349.28-6.28L349.28-6.28 349.28-7Q349.28-10.38 351.37-12.04 353.46-13.7 358.01-14.35L358.01-14.35 365.73-15.45 365.96-12.5 358.51-11.43Q355.71-11.03 354.51-10.06 353.31-9.1 353.31-7.23L353.31-7.23 353.31-6.83Q353.31-4.9 354.5-3.88 355.68-2.85 358.06-2.85L358.06-2.85Q360.16-2.85 361.66-3.58 363.16-4.3 364.08-5.53 365.01-6.75 365.33-8.25L365.33-8.25 365.96-5.5 365.18-5.5Q364.83-3.9 363.87-2.53 362.91-1.15 361.18-0.31 359.46 0.53 356.78 0.53Z" opacity="1" transform="matrix(1,0,0,1,0,0)" fill="#ffffff" class="slogan-text-1" data-fill-palette-color="secondary" id="text-1"></path></svg></g></svg></g></svg></g></svg></g><g></g></svg></g><defs></defs></svg><rect width="238.76128820079765" height="94.5199304031823" fill="none" stroke="none" visibility="hidden"></rect></g></svg></g></svg>